<svg width="409" height="72" viewBox="0 0 409 72" fill="none" xmlns="http://www.w3.org/2000/svg">
    <path d="M282.375 21.3654L245.663 1.27874V69.0027H319.086V1.27874L282.375 21.3654Z" fill="#13A538"></path>
    <path d="M282.375 21.3654L245.663 1.27874V69.0027H254.169V15.7187L282.375 31.0201L310.582 15.7187V69.0027H319.086V1.27874L282.375 21.3654Z" fill="black"></path>
    <path d="M116.402 2.94424L78.4377 68.6989H154.366L116.402 2.94424Z" fill="#604696"></path>
    <path d="M116.402 2.99318L83.4564 60.0572H74.603V68.6985H158.2V60.0572H149.347L116.402 2.99318ZM116.402 19.9238L139.572 60.0572H93.231L116.402 19.9238Z" fill="black"></path>
    <path d="M232.082 35.8018C232.082 55.5752 216.053 71.6045 196.279 71.6045C176.507 71.6045 160.478 55.5752 160.478 35.8018C160.478 16.0285 176.507 0.000488281 196.279 0.000488281C216.053 0.000488281 232.082 16.0285 232.082 35.8018Z" fill="#FDC300"></path>
    <path d="M232.082 35.8018C232.082 55.5752 216.053 71.6045 196.279 71.6045C176.507 71.6045 160.478 55.5752 160.478 35.8018C160.478 16.0285 176.507 0.000488281 196.279 0.000488281C216.053 0.000488281 232.082 16.0285 232.082 35.8018Z" fill="#FDC300"></path>
    <path d="M196.28 0C176.507 0 160.479 16.0293 160.479 35.8013C160.479 55.5747 176.507 71.604 196.28 71.604C216.053 71.604 232.083 55.5747 232.083 35.8013C232.083 16.0293 216.053 0 196.28 0ZM196.28 63.1387C181.207 63.1387 168.944 50.8747 168.944 35.8013C168.944 20.728 181.207 8.46533 196.28 8.46533C211.353 8.46533 223.616 20.728 223.616 35.8013C223.616 50.8747 211.353 63.1387 196.28 63.1387Z" fill="black"></path>
    <path d="M370.352 2.94424L332.389 68.6989H408.316L370.352 2.94424Z" fill="#EC6608"></path>
    <path d="M398.484 68.6988H408.315L370.351 2.94408L332.388 68.6988H341.955L349.008 56.4801H391.444L398.484 68.6988ZM353.998 47.8388L370.351 19.8748L386.464 47.8388H353.998Z" fill="black"></path>
    <path d="M47.3643 24.3545C48.395 24.3545 49.2337 23.5158 49.2337 22.4852C49.2337 21.4545 48.395 20.6172 47.3643 20.6172C46.3337 20.6172 45.4963 21.4545 45.4963 22.4852C45.4963 23.5158 46.3337 24.3545 47.3643 24.3545Z" fill="black"></path>
    <path d="M54.6409 24.3545C55.6716 24.3545 56.5089 23.5158 56.5089 22.4852C56.5089 21.4545 55.6716 20.6172 54.6409 20.6172C53.6103 20.6172 52.7716 21.4545 52.7716 22.4852C52.7716 23.5158 53.6103 24.3545 54.6409 24.3545Z" fill="black"></path>
    <path d="M33.1446 45.0266C34.9846 45.0266 37.7072 44.7093 39.2379 44.12V40.1613C37.9019 40.6906 35.3846 40.94 33.9859 40.94C31.2592 40.94 28.0739 39.5826 28.0739 35.7573C28.0739 31.584 31.2006 30.0973 34.1272 30.0973C35.3846 30.0973 37.7646 30.3826 39.0979 30.9026V27.0026C37.6072 26.4333 34.8472 26.0946 32.9752 26.0946C29.9459 26.0946 27.3059 27.0693 25.5406 28.8413C23.8659 30.5226 23.0219 32.8493 23.0326 35.7546C23.0326 42.5906 28.2566 45.0266 33.1446 45.0266Z" fill="black"></path>
    <path d="M20.204 39.9143C20.204 37.6836 19.1147 36.2209 16.9667 35.5676L15.584 35.1449L16.9307 34.6209C18.652 33.9529 19.4187 32.7903 19.4187 30.8503C19.4187 27.8863 17.2453 26.3849 12.96 26.3849H4.01868V45.0263H12.708C17.6813 45.0263 20.204 43.3076 20.204 39.9143ZM9.12001 30.1543H12.0613C13.3347 30.1543 14.1893 30.9409 14.1893 32.1129C14.1893 33.0876 13.532 34.0729 12.0613 34.0729L9.12001 34.0396V30.1543ZM9.12001 41.2569V37.0569H12.3707C13.86 37.0569 14.7507 37.8409 14.7507 39.1569C14.7507 40.4729 13.86 41.2569 12.3707 41.2569H9.12001Z" fill="black"></path>
    <path d="M58.5055 40.8645H48.3721V37.5339H57.3268V33.7645H48.3721V30.4899H58.3375V26.3845H43.2615V45.0272H58.5055V40.8645Z" fill="black"></path>
    <path d="M50.4347 50.3678C48.092 50.3678 42.644 50.9945 42.644 56.7958C42.644 59.2025 43.748 60.9612 45.924 62.0212L46.456 62.2812L41.728 68.8412H47.124L51.1294 63.0838H53.5747V68.8412H58.6587V50.3678H50.4347ZM53.5747 59.2678H50.796C49.1507 59.2678 48.1294 58.3745 48.1294 56.9345C48.1294 55.4945 49.1507 54.6012 50.796 54.6012H53.5747V59.2678Z" fill="black"></path>
    <path d="M27.0844 50.4192L21.1804 68.8418H26.3711L30.6564 55.6032L34.9538 68.8418H40.1964L34.2458 50.4192H27.0844Z" fill="black"></path>
    <path d="M13.8413 50.3837H6.67867L1.968 65.0837L0 65.085L0.00533295 68.8943L19.056 68.8743L20.3867 65.0637L18.6307 65.0663L13.8413 50.3837ZM10.252 55.5677L13.3373 65.0717L7.17467 65.0783L10.252 55.5677Z" fill="black"></path>
</svg>