<svg width="992" height="793" viewBox="0 0 992 793" fill="none" xmlns="http://www.w3.org/2000/svg">
<g opacity="0.25">
<path d="M487.9 74.5C434.1 17.6 263.7 -49 95.5 58.3C-72.7 165.6 -22.2 550.8 269.2 543.8C430 539.9 492 526.7 640.3 605C789.5 683.8 909.1 636.8 959 537.5C1053.4 349.2 938.4 239.2 734.5 204C574.1 176.3 525.9 114.9 487.9 74.5Z" fill="#DC3C24"/>
</g>
<path d="M528.8 642.1V647.4C528.8 647.4 524 653 510.5 656.2V654C510.5 654 499.5 655.6 496.9 659.2C496.9 659.2 489.8 666.7 485.6 669C485.6 669 474 676.1 464.8 676.1C464.8 676.1 451.8 677.2 450.2 671.2V667L528.8 642.1Z" fill="black"/>
<path d="M462.5 677.2C461.3 677.2 459.7 677.2 458.1 676.9C453.1 676.2 450.1 674.4 449.4 671.5C449.4 671.4 449.4 671.3 449.4 671.2V667C449.4 666.5 449.7 666.2 450.1 666L528.6 641.1C528.9 641 529.3 641.1 529.5 641.3C529.7 641.5 529.9 641.8 529.9 642.1V647.4C529.9 647.7 529.8 647.9 529.6 648.1C529.4 648.3 524.5 653.9 510.8 657.2C510.5 657.3 510.2 657.2 509.9 657C509.6 656.8 509.5 656.5 509.5 656.2V655.2C506 655.8 499.5 657.4 497.8 659.8L497.7 659.9C497.4 660.2 490.5 667.5 486.1 669.9C485.3 670.4 474.1 677.2 464.9 677.2C464.7 677.2 463.8 677.2 462.5 677.2ZM451.3 671.1C452.5 675.2 461.4 675.4 464.8 675.1H464.9C473.7 675.1 485 668.2 485.1 668.1C489 666 495.5 659.1 496.1 658.5C497.4 656.8 500.1 655.4 504.4 654.2C507.5 653.3 510.2 652.9 510.3 652.9C510.6 652.9 510.9 652.9 511.1 653.2C511.3 653.4 511.5 653.7 511.5 654V654.9C521.9 652.2 526.7 648.1 527.7 647V643.5L451.2 667.7L451.3 671.1Z" fill="black"/>
<path d="M624.2 540L628.4 544.9C628.4 544.9 628.8 557.9 626.6 565.3L624.7 565V582.2C624.7 582.2 624.7 594.8 619 600.5C619 600.5 609 612.7 591.9 612.7C591.9 612.7 584.9 612.8 582.9 610.6L579.9 607.2L624.2 540Z" fill="black"/>
<path d="M591.7 613.6C590.4 613.6 584.2 613.5 582.1 611.2L579.1 607.8C578.8 607.5 578.8 607 579 606.6L623.2 539.5C623.4 539.2 623.7 539.1 624 539C624.3 539 624.6 539.1 624.8 539.4L629 544.3C629.2 544.5 629.3 544.7 629.3 544.9C629.3 545.4 629.7 558.1 627.4 565.6C627.2 566.1 626.8 566.4 626.3 566.3L625.6 566.2V582.2C625.6 582.7 625.5 595.2 619.7 601.2C619.4 601.6 616.8 604.5 612.4 607.5C608 610.4 601 613.8 591.9 613.8C591.9 613.6 591.8 613.6 591.7 613.6ZM583.7 609.8C584.9 611.1 589.4 611.6 591.9 611.5C600.4 611.5 607.1 608.3 611.2 605.6C615.7 602.7 618.2 599.7 618.2 599.7C618.2 599.7 618.2 599.6 618.3 599.6C623.6 594.3 623.7 582.2 623.7 582V564.8C623.7 564.5 623.8 564.2 624.1 564C624.3 563.8 624.6 563.7 624.9 563.8L625.9 564C627.6 557.5 627.5 547.2 627.4 545.2L624.3 541.6L581.2 607L583.7 609.8Z" fill="black"/>
<path d="M528.6 634.7C528.6 634.7 528.8 639.5 528.8 642.1C528.8 642.1 522.6 648.6 510.3 651.4C509.4 651.6 508.5 651.8 507.6 651.9C505.3 652.3 497.9 654 492.8 659.5C491.5 660.9 490.2 662.3 488.7 663.5C485.1 666.4 478.5 670.8 470.2 672.7C470.2 672.7 459.5 674.4 453.8 672C451.6 671.1 450.3 669 450.3 666.7C450.3 663.5 451.6 657.4 459.2 650.9C459.7 650.5 460.2 650.1 460.7 649.8C463.6 647.7 474.1 640 480.3 634.8L528.6 634.7Z" fill="#DC3C24"/>
<path d="M462.2 674.4C459.2 674.4 455.9 674.1 453.4 673.1C450.9 672.1 449.3 669.6 449.3 666.9C449.3 663.6 450.6 657.1 458.6 650.3C459 649.9 459.5 649.6 460.1 649.1C463.1 646.9 473.5 639.3 479.6 634.2L479.9 633.9L529.6 633.6V634.6C529.6 634.8 529.8 639.5 529.8 642.1V642.5L529.5 642.8C529.2 643.1 522.9 649.6 510.5 652.4C509.6 652.6 508.6 652.8 507.7 652.9C505.6 653.3 498.3 654.9 493.5 660.2C491.9 662 490.6 663.2 489.2 664.3C485.1 667.6 478.6 671.8 470.2 673.7H470.1C470 673.9 466.4 674.4 462.2 674.4ZM480.6 636C474.4 641.2 464.3 648.6 461.3 650.8C460.7 651.2 460.3 651.6 459.9 651.9C452.5 658.2 451.3 664 451.3 666.9C451.3 668.8 452.4 670.5 454.2 671.2C459.4 673.3 469.4 671.9 470 671.8C477.9 670 484.2 665.9 488.1 662.8C489.4 661.8 490.6 660.6 492.1 658.9C497.4 653.1 505.2 651.3 507.5 650.9C508.4 650.7 509.3 650.6 510.2 650.4C520.6 648 526.6 642.9 527.9 641.6C527.9 639.8 527.8 637.1 527.7 635.6L480.6 636Z" fill="black"/>
<path d="M619 535.8C619 535.8 622.7 537.3 624.2 540C624.2 540 625.5 550.9 623.8 558.7C623 562.5 622.5 566.3 622.5 570.2L622.3 581.9C622.3 581.9 622.1 584.7 621.3 588.2C620.1 593.3 617.2 597.9 613.1 601.2C610.6 603.3 607.1 605.8 604.2 607C604.2 607 592.2 612.6 582 608.6C581 608.2 580.2 607.5 579.7 606.6C578.7 604.9 577.9 601.8 580.6 597.4L587.8 585.5C589.4 582.9 590.7 580 591.6 577.1C591.8 576.5 592 575.8 592.1 575.2C592.1 575.2 593.8 567.9 594.4 565.1L619 535.8Z" fill="#DC3C24"/>
<path d="M590.3 611.1C587.5 611.1 584.6 610.7 581.7 609.6C580.5 609.1 579.5 608.3 578.9 607.2C577.9 605.5 576.7 602 579.8 596.9L587 585C588.6 582.3 589.8 579.6 590.7 576.8C590.9 576.1 591 575.5 591.2 575C591.2 574.9 592.9 567.7 593.5 564.9V564.6L618.8 534.5L619.5 534.8C619.7 534.9 623.5 536.4 625.2 539.5L625.3 539.7V539.9C625.3 540.4 626.6 551 624.9 559C624.1 562.6 623.7 566.4 623.6 570.3L623.4 582C623.4 582.1 623.2 585 622.4 588.5C621.2 593.8 618.1 598.6 613.9 602.1C611.4 604.1 607.9 606.8 604.8 608.1C604.5 608.3 601.5 609.6 597.3 610.5C595.2 610.8 592.8 611.1 590.3 611.1ZM593.1 575.5C593 576.1 592.8 576.7 592.6 577.4C591.7 580.4 590.4 583.3 588.7 586.1L581.5 598C579.1 602 579.7 604.6 580.6 606.2C581 606.9 581.6 607.4 582.4 607.7C592 611.5 603.6 606.2 603.8 606.1C606.6 604.9 610 602.4 612.4 600.4C616.3 597.2 619.1 592.8 620.2 587.9C621 584.7 621.1 582 621.1 581.8L621.3 570.1C621.4 566 621.8 562.1 622.7 558.4C624.3 551.4 623.3 541.7 623.1 540.2C622.1 538.5 620.2 537.4 619.2 536.9L595.2 565.5C594.7 568.5 593.1 575.2 593.1 575.5Z" fill="black"/>
<path d="M576.1 341.6C576.1 341.6 580.6 363.6 581.4 396.1C582.1 421.9 574.3 461.6 575.9 471.5C576.2 473.2 576.9 474.8 577.9 476.1C583.2 483.2 601.4 507.8 618.9 532.9C618.9 532.9 620 555.1 613.6 564.9C613.6 564.9 609.9 569.9 604.1 569.9C604.1 569.9 597.7 570 594.4 565.1C594.4 565.1 579 544.4 566.4 535.8C563.1 533.5 559.9 531.2 556.8 528.7C549.9 523 540.2 514 537.9 507.1C537.9 507.1 521.3 457.3 519.2 449.6V502.4C519.2 502.4 519 507.5 520.9 513C520.9 513 528.5 540.8 528.8 553.1L532 632.8C532 632.8 526.7 637.8 504.8 637.8C504.8 637.8 483.3 637.7 480.2 634.9C480.2 634.9 481.5 623.8 482.5 609.7C484.2 585.4 482.4 560.9 477 537.2C476.3 534 475.5 530.9 474.7 528.3C473.2 523.2 471.9 518 470.9 512.8C469.2 504.5 467.1 492.7 466.3 481.3C466.3 481.3 461.5 407.4 463.5 386.5L576.1 341.6Z" fill="black"/>
<path d="M504.9 638.8C504.8 638.8 499.4 638.8 493.7 638.4C483.1 637.7 480.6 636.5 479.6 635.6C479.3 635.4 479.2 635.1 479.3 634.7C479.3 634.6 480.6 623.5 481.5 609.5C483.2 585 481.3 560.7 476 537.3C475.2 533.9 474.5 530.9 473.7 528.4C472.1 522.8 470.9 517.8 469.9 512.8C468.3 504.8 466.1 492.8 465.3 481.2C465.2 480.4 460.5 407 462.5 386.2C462.5 385.8 462.8 385.5 463.1 385.4L575.8 340.6C576.1 340.5 576.4 340.5 576.7 340.7C577 340.9 577.2 341.1 577.2 341.4C577.2 341.6 581.7 363.8 582.5 396.1C582.9 410 580.8 427.5 579 442.9C577.5 455.8 576.2 466.9 576.9 471.4C577.2 472.9 577.8 474.4 578.7 475.6C583.9 482.6 602.2 507.3 619.8 532.4C619.9 532.6 620 532.7 620 532.9C620 533.8 621 555.6 614.5 565.5C614.3 565.7 610.4 570.9 604.2 570.9C603.8 570.9 597.2 570.9 593.7 565.7C593.2 565 578.1 545 565.9 536.6C562 533.9 559 531.7 556.3 529.4C548.8 523.2 539.4 514.3 537.1 507.3C536.5 505.6 525.3 471.9 520.4 456.4V502.4C520.4 502.5 520.3 507.4 522 512.6C522 512.6 522 512.6 522 512.7C522.3 513.8 529.6 540.7 530 553L533.2 632.7C533.2 633 533.1 633.3 532.9 633.5C532.6 633.8 527 638.8 504.9 638.8ZM481.3 634.5C482.3 635 485.3 635.9 493.7 636.5C499.4 636.9 504.7 636.9 504.8 636.9C523 636.9 529.5 633.4 531 632.4L527.8 553.2C527.4 541.3 520.2 514.3 519.9 513.3C518.1 507.8 518.2 502.8 518.2 502.4V449.6C518.2 449.1 518.6 448.7 519.1 448.6C519.6 448.5 520.1 448.9 520.2 449.4C522.2 457 538.7 506.3 538.8 506.8C540.5 511.9 547.1 519.4 557.4 528C560 530.2 563.1 532.4 566.9 535.1C579.5 543.8 594.5 563.8 595.1 564.6C598.1 568.9 603.9 568.9 604 568.9C609.1 568.9 612.4 564.7 612.7 564.4C618.5 555.6 618 536 617.9 533.4C600.4 508.4 582.2 483.9 577 476.9C575.9 475.4 575.1 473.6 574.8 471.8C574 467 575.3 456.3 576.9 442.8C578.7 427.4 580.7 410 580.4 396.2C579.7 368.4 576.3 348.1 575.3 343.1L464.3 387.2C462.5 408.6 467.1 480.5 467.2 481.3C468.1 492.8 470.2 504.7 471.8 512.6C472.8 517.5 474.1 522.5 475.6 528C476.3 530.5 477.1 533.5 477.9 537C483.3 560.6 485.2 585.1 483.5 609.8C482.7 621.9 481.6 632 481.3 634.5Z" fill="black"/>
<path d="M517.2 352.9C517.2 352.9 514.8 357.2 508.8 358.3C508.8 358.3 499.2 360.3 494.7 362.8C494.7 362.8 490.9 364.2 484.8 364.1C484.8 364.1 480.2 363.8 480.1 366.7C480.1 366.7 480.1 371.3 490.2 371.3C490.2 371.3 497.3 371.8 497.3 374.2C497.3 374.2 497.7 375.3 496.7 375.9L475 388.4L484.6 391.3C484.6 391.3 491 393.1 495.5 390.7C495.5 390.7 502.1 388.5 510.1 387.3C510.1 387.3 514.9 386.3 517.5 383C517.5 383 525 373.2 527.3 370.5L517.2 352.9Z" fill="#F2F2F2"/>
<path d="M560.4 174.5C560.4 174.5 584.7 194.8 588.2 197.4C588.2 197.4 598 204.4 599.6 218.7C599.6 218.7 606.4 305.5 606.4 307.3C606.5 310 607.3 315.9 602.9 319.7C602.9 319.7 593.2 328.5 585.7 334.4C585.7 334.4 553.2 359.5 528.4 371.9C528.4 371.9 521 362.7 517.9 354.9L460.5 205C460.5 205 471.5 182.4 484.5 170.4C488.2 167 492.9 165.1 497.9 164.9C498.7 164.9 499.4 164.9 500.3 164.9L560.4 174.5Z" fill="#DC3C24"/>
<path d="M528.1 373.3L527.6 372.7C527.3 372.3 520.1 363.3 516.9 355.5L459.3 205.2L459.5 204.8C459.5 204.7 462.3 199 466.7 191.9C470.7 185.3 477 176.2 483.8 169.9C487.6 166.4 492.6 164.3 497.8 164.2C498.6 164.2 499.4 164.2 500.2 164.2H500.3H500.4L560.9 173.7L561.1 173.9C561.4 174.1 585.4 194.2 588.8 196.8C589 197 591.5 198.8 594.1 202.3C596.6 205.6 599.7 211.2 600.6 218.9C600.9 222.5 607.4 305.8 607.4 307.6C607.4 307.9 607.4 308.2 607.4 308.5C607.6 311.5 607.9 317 603.6 320.7C603.2 321 593.7 329.7 586.4 335.5C586.1 335.8 553.5 360.8 528.9 373.1L528.1 373.3ZM518.8 354.7C521.4 361.1 527 368.6 528.7 370.8C553 358.4 584.8 334 585.1 333.7C592.5 327.9 602.1 319.1 602.2 319C605.8 315.9 605.5 311.2 605.4 308.4C605.4 308.1 605.4 307.7 605.4 307.4C605.4 306 600.9 248.9 598.6 218.8C597.1 205.1 587.8 198.3 587.7 198.2C584.4 195.7 562.7 177.6 560.1 175.5L500.2 166.1C499.4 166.1 498.7 166.1 498 166.1C493.3 166.3 488.8 168.1 485.3 171.3C473.5 182.1 463.2 202.1 461.7 205.2L518.8 354.7Z" fill="black"/>
<path d="M511.4 177.9C500.2 179.9 500.2 171 500.2 171C500.1 169.1 499.5 165.6 499.5 165.6C498.2 157.1 496.4 146.4 496.4 146.4C496 144.2 496.3 142.5 496.6 141.2C497 139.8 496.9 138.3 496.3 137C495.5 135.2 495.4 133.3 495.4 133.3L541.6 131L555.2 139.9L557.4 141.6C557.4 141.6 559.3 148.8 551.8 153.7C551.8 153.7 551.8 160.5 552.5 163.1L544.1 182.8L507.5 190.5L511.4 177.9Z" fill="#F2F2F2"/>
<path d="M507.4 191.6C507.1 191.6 506.8 191.5 506.6 191.3C506.3 191 506.3 190.7 506.4 190.3L509.9 179.1C506.6 179.4 503.9 178.8 502 177.2C499.2 174.9 499.1 171.4 499.1 171C499 169.2 498.4 165.8 498.4 165.7C497.1 157.3 495.3 146.6 495.3 146.5C495 144.5 495 142.6 495.5 140.9C495.8 139.8 495.7 138.5 495.2 137.4C494.3 135.4 494.2 133.4 494.2 133.3C494.2 132.7 494.6 132.3 495.2 132.2L541.4 129.9C541.6 129.9 541.8 130 542 130.1L555.6 139.1C555.6 139.1 555.6 139.1 555.7 139.1L557.9 140.8C558.1 140.9 558.2 141.1 558.3 141.4C558.3 141.5 558.8 143.4 558.3 146.1C557.8 148.4 556.5 151.7 552.7 154.4C552.7 156 552.8 161 553.4 163C553.5 163.2 553.4 163.5 553.4 163.7L545 183.4C544.9 183.7 544.6 183.9 544.3 184L507.7 191.7C507.6 191.6 507.5 191.6 507.4 191.6ZM511.4 176.9C511.7 176.9 512 177 512.2 177.2C512.4 177.5 512.5 177.8 512.4 178.2L509 189.3L543.4 182.1L551.5 163.2C550.8 160.3 550.8 154.1 550.8 153.9C550.8 153.6 551 153.2 551.3 153C557.2 149.1 556.8 143.7 556.5 142.3L554.6 140.9L541.3 132.2L496.6 134.4C496.7 135 496.9 135.9 497.3 136.7C498 138.3 498.1 140 497.7 141.6C497.3 143.1 497.2 144.7 497.5 146.4C497.5 146.5 499.3 157.2 500.6 165.6C500.7 165.9 501.3 169.3 501.4 171.2C501.4 171.2 501.5 174.1 503.6 175.8C505.3 177.2 508 177.7 511.4 177.1C511.3 176.9 511.3 176.9 511.4 176.9Z" fill="black"/>
<path d="M498.8 202.9L511.3 189.8L513.5 187.5C513.5 187.5 513 183.8 512.7 182.6C512.4 181.4 511.4 177.9 511.4 177.9C506.7 178.7 504 177.6 502.4 176.1C495.9 194.9 498.8 202.9 498.8 202.9Z" fill="#DC3C24"/>
<path d="M498.8 203.9C498.7 203.9 498.7 203.9 498.6 203.9C498.3 203.8 498 203.6 497.8 203.2C497.7 202.9 494.8 194.6 501.4 175.7C501.5 175.4 501.8 175.1 502.1 175C502.4 174.9 502.8 175 503.1 175.3C504.8 177 507.6 177.5 511.2 176.8C511.7 176.7 512.2 177 512.4 177.5C512.4 177.7 513.4 181.1 513.7 182.3C514 183.5 514.5 187.1 514.5 187.3C514.5 187.6 514.5 187.9 514.2 188.2L499.5 203.6C499.3 203.8 499 203.9 498.8 203.9ZM502.9 177.8C500 186.5 499.3 192.7 499.2 196.4C499.1 198.4 499.3 199.8 499.4 200.8L512.4 187.2C512.2 186.2 511.9 183.8 511.7 182.9C511.5 182.1 511 180.2 510.7 179.1C507.4 179.5 504.8 179 502.9 177.8Z" fill="black"/>
<path d="M537.1 134.6C537.1 134.6 537.1 143.7 541 146.2C541.8 146.7 542.8 146.7 543.6 146.2C544.4 145.7 545.5 144.8 546.8 143C547.5 142 548.4 141.2 549.4 140.5C551 139.5 553.3 138.5 555.2 140L550.6 132L539.2 129.3L537.1 134.6Z" fill="black"/>
<path d="M557.3 141.7C557.3 141.7 548.4 134.7 541.5 131.1L506.9 129.5L498 120.5L494.6 117.1L505.3 96.5C505.3 96.5 513.8 80.9 536.3 88.1C536.6 88.2 536.8 88.3 537.1 88.4C537.1 88.4 558 95.5 562.2 111.1C562.3 111 566 129.4 557.3 141.7Z" fill="#DC3C24"/>
<path d="M557.6 143.2L556.8 142.5C556.7 142.4 548.1 135.7 541.3 132.1L506.6 130.5L493.5 117.3L504.6 96C504.7 95.8 506.9 91.8 512 88.7C515 86.9 518.4 85.7 522 85.3C526.5 84.8 531.5 85.4 536.8 87.1C537.1 87.2 537.3 87.3 537.6 87.4C537.8 87.5 543 89.3 548.8 93C552.2 95.2 555.1 97.7 557.4 100.3C560.3 103.6 562.3 107.1 563.3 110.8V110.9C563.3 111.1 564.2 115.7 564.1 121.8C563.9 127.5 562.8 135.7 558.2 142.3L557.6 143.2ZM507.4 128.5L541.8 130.1L542 130.2C547.7 133.2 554.7 138.4 557.1 140.3C560.9 134.3 561.9 127 562 121.8C562.2 116.1 561.3 111.7 561.3 111.3C559.2 103.6 552.7 98.1 547.6 94.7C542 91.1 536.9 89.3 536.8 89.3C536.5 89.2 536.3 89.1 536 89C527 86.1 519.2 86.6 513 90.3C508.4 93.1 506.3 96.7 506.2 96.9L495.9 116.9L507.4 128.5Z" fill="black"/>
<path d="M541.5 131.1C541.5 131.1 527.9 143.2 517.3 143.2C517.3 143.2 513.7 143 509.6 140.4C509.6 140.4 496.7 130.8 481.8 131.3C479.6 131.4 477.5 131.7 475.2 132.2C475.2 132.2 484.9 121.1 494.5 117.1C494.5 117.1 496.3 117 499.5 117.3C507 118 521.8 120.8 541.5 131.1Z" fill="#DC3C24"/>
<path d="M517.3 144.2C517.1 144.2 513.4 144 509.1 141.3C509.1 141.3 505.9 138.9 500.9 136.7C496.4 134.6 489.4 132.2 481.9 132.5C479.7 132.6 477.6 132.9 475.6 133.4C475.2 133.5 474.7 133.3 474.5 132.9C474.3 132.5 474.3 132 474.6 131.7C475 131.2 484.6 120.4 494.3 116.3C494.4 116.3 494.5 116.2 494.6 116.2C494.7 116.2 496.5 116.1 499.8 116.4C507 117.1 522.1 119.8 542 130.3C542.3 130.5 542.5 130.8 542.5 131.1C542.5 131.4 542.4 131.8 542.2 132C541.6 132.3 528.1 144.2 517.3 144.2ZM510.2 139.5C513.8 141.8 517 142.1 517.3 142.1C525.6 142.1 536.2 134.1 539.7 131.3C520.7 121.6 506.4 119 499.5 118.4C496.9 118.1 495.3 118.1 494.8 118.2C488.2 121.1 481.5 127.3 478.1 130.7C479.3 130.5 480.5 130.4 481.7 130.4C489.6 130.1 496.9 132.7 501.7 134.8C506.7 137 509.9 139.3 510.2 139.5Z" fill="black"/>
<path d="M552.4 162.9C552.4 162.9 536.2 184.7 513.5 187.5L517.2 209.3C517.2 209.3 554 183.7 560.4 174.5L552.4 162.9Z" fill="#DC3C24"/>
<path d="M517.2 210.4C517.1 210.4 516.9 210.4 516.8 210.3C516.5 210.2 516.2 209.9 516.2 209.5L512.5 187.7C512.5 187.4 512.5 187.1 512.7 186.9C512.9 186.7 513.1 186.5 513.4 186.5C524.9 185.1 534.7 178.6 540.8 173.4C547.5 167.7 551.6 162.3 551.6 162.3C551.8 162 552.1 161.9 552.4 161.9C552.7 161.9 553 162.1 553.2 162.3L561.2 173.9C561.5 174.3 561.5 174.7 561.2 175.1C554.7 184.3 519.2 209.1 517.7 210.2C517.6 210.3 517.4 210.4 517.2 210.4ZM514.6 188.4L517.9 207.6C524.4 203 552.7 182.9 559.2 174.5L552.4 164.6C550.9 166.5 547.3 170.6 542.2 174.9C538.1 178.3 533.9 181.2 529.7 183.3C524.6 186 519.6 187.7 514.6 188.4Z" fill="black"/>
<path d="M360.156 250.345L447.756 199.745L535.356 250.345V351.445L447.756 402.045V301.245L360.156 250.345Z" fill="#F2F2F2"/>
<path d="M535.356 351.145L447.756 401.745V300.845L535.356 250.045V351.145Z" fill="#DC3C24"/>
<path d="M358.456 251.445V352.545L359.356 353.045L446.056 403.045L447.856 404.045L449.656 403.045L537.256 352.445V251.445V249.445L536.956 249.245L447.856 197.845L358.556 249.445L358.456 251.445ZM531.856 250.345L490.656 274.145L406.556 225.645L447.756 201.845L531.856 250.345ZM449.456 301.945L533.556 253.445V350.545L449.456 399.045V301.945ZM363.656 250.345L404.856 226.645L488.956 275.145L447.756 298.945L412.156 278.345L363.656 250.345Z" fill="black"/>
<path d="M476.456 312.445C476.256 314.645 477.256 316.845 479.156 318.145C479.856 318.545 480.556 318.745 481.356 318.745C482.356 318.745 483.356 318.445 484.256 317.845L500.456 308.445C504.156 305.845 506.456 301.645 506.556 297.045C506.756 294.845 505.756 292.645 503.856 291.345C502.256 290.445 500.256 290.545 498.756 291.645L482.556 301.045C478.756 303.645 476.556 307.845 476.456 312.445ZM480.956 315.045C480.556 314.845 480.156 314.045 480.056 312.745L493.956 304.745C497.056 302.545 499.056 299.145 499.456 295.345L500.556 294.645C500.956 294.445 501.656 294.045 502.156 294.345C502.556 294.645 503.056 295.445 503.056 297.045C502.956 300.345 501.456 303.445 498.756 305.345L482.556 314.745C482.156 315.045 481.456 315.345 480.956 315.045Z" fill="#16110D"/>
<path d="M372.856 321.945C373.756 321.445 374.856 321.545 375.656 322.145L388.556 329.645C390.656 331.145 391.956 333.545 391.956 336.145V350.045C392.056 351.345 391.456 352.545 390.456 353.245C390.056 353.445 389.656 353.545 389.256 353.545C388.656 353.545 388.156 353.345 387.656 353.045L374.756 345.545C372.656 344.045 371.356 341.645 371.356 339.045V325.145C371.256 323.845 371.856 322.645 372.856 321.945Z" fill="#DC3C24"/>
<path d="M508 358.5L517.2 374.2L524.8 367.1L579.9 316.3L586.6 281.2L570.8 294.2C571.4 297 572.1 299.6 572.8 301.9C572.8 301.9 530.2 334.2 517.2 352.9C517.2 352.9 514.8 357.2 508.8 358.3C508.7 358.3 508.5 358.4 508 358.5Z" fill="#DC3C24"/>
<path d="M475 388.4L484.6 391.3C484.6 391.3 491 393.1 495.5 390.7C495.5 390.7 502.1 388.5 510.1 387.3C510.1 387.3 514.9 386.3 517.5 383C517.5 383 525 373.2 527.3 370.5C526.7 369.6 525.8 368.5 524.9 367.1C522.6 363.7 519.7 359.2 518 355L517.3 352.9C517.3 352.9 514.9 357.2 508.9 358.3C508.9 358.3 508.6 358.4 508.1 358.5C505.7 359 498.5 360.8 494.7 362.8C494.7 362.8 490.9 364.2 484.8 364.1C484.8 364.1 480.2 363.8 480.1 366.7C480.1 366.7 480.1 371.3 490.2 371.3C490.2 371.3 497.3 371.8 497.3 374.2C497.3 374.2 497.7 375.3 496.6 375.9L475 388.4Z" fill="#F2F2F2"/>
<path d="M489.7 392.9C486.8 392.9 484.5 392.3 484.3 392.2L474.7 389.3C474.3 389.2 474 388.8 474 388.4C473.9 388 474.2 387.6 474.5 387.4L496 375C496.3 374.8 496.2 374.6 496.2 374.5C496.2 374.4 496.2 374.3 496.1 374.2C496.1 374 495.6 373.3 493.3 372.8C491.7 372.4 490.2 372.3 489.9 372.3C479 372.3 478.9 366.9 478.9 366.7C478.9 365.8 479.3 365 480 364.4C481.5 363 484.2 363.1 484.7 363.1C490.1 363.2 493.7 362 494.2 361.8C498.1 359.7 505.6 357.9 507.8 357.4C508.3 357.3 508.6 357.2 508.6 357.2C514.1 356.2 516.2 352.5 516.3 352.3C516.5 351.9 516.9 351.7 517.3 351.8C517.7 351.8 518.1 352.1 518.2 352.5L518.9 354.6C520.6 358.8 523.5 363.3 525.7 366.5C526.5 367.6 527.2 368.7 528.1 369.8C528.1 369.8 528.1 369.9 528.2 370C528.4 370.4 528.3 370.8 528 371.1C525.7 373.7 518.4 383.5 518.3 383.5C515.5 387.1 510.5 388.1 510.3 388.2C510.3 388.2 510.3 388.2 510.2 388.2C502.9 389.3 496.6 391.2 495.9 391.5C493.9 392.6 491.7 392.9 489.7 392.9ZM484.8 390.3C485.1 390.4 491 391.9 495 389.8C495.1 389.8 495.1 389.8 495.2 389.7C495.3 389.7 502 387.5 509.9 386.3C510.2 386.2 514.4 385.3 516.7 382.4C517 381.9 523.3 373.7 526 370.5C525.3 369.5 524.6 368.6 524 367.7C521.8 364.5 518.7 359.8 517 355.4C517 355.4 517 355.4 517 355.3L516.9 355C515.6 356.5 513 358.5 509 359.3C508.9 359.3 508.7 359.4 508.3 359.5C506.1 360 498.9 361.7 495.2 363.8C495.2 363.8 495.1 363.8 495.1 363.9C494.9 364 491 365.4 484.8 365.3C484.8 365.3 484.8 365.3 484.7 365.3C484.1 365.3 482.3 365.3 481.5 366C481.2 366.2 481.1 366.5 481.1 366.8C481.1 366.9 481.2 367.7 482.2 368.5C483.2 369.4 485.5 370.4 490.2 370.4C490.2 370.4 490.2 370.4 490.3 370.4C490.4 370.4 492.2 370.5 494 371C495 371.3 498.2 372 498.4 374.2C498.6 374.9 498.5 376.2 497.2 376.9L477.7 388.2L484.8 390.3Z" fill="black"/>
<path d="M517.2 354C517 354 516.8 353.9 516.6 353.8C516.1 353.5 516 352.8 516.3 352.4C521.8 344.6 532.8 333.6 549.2 319.7C559.8 310.7 569.3 303.4 571.6 301.6C571 299.5 570.4 297.1 569.8 294.5C564.9 273.3 561.5 241 560.5 231.6C560.3 230 560.3 228.7 560.3 227.5C560.4 216.9 564.1 210.4 567.3 206.8C570.8 202.9 574.2 201.5 574.4 201.5C574.9 201.3 575.5 201.6 575.7 202.1C575.9 202.6 575.6 203.2 575.1 203.4C575.1 203.4 571.9 204.7 568.8 208.2C564.6 212.9 562.4 219.6 562.4 227.4C562.4 228.5 562.5 229.8 562.6 231.3C563.6 240.7 567 272.9 571.9 294C572.6 296.8 573.2 299.4 573.9 301.6C574 302 573.9 302.4 573.5 302.7C573.1 303 530.9 335.1 518.1 353.5C517.8 353.8 517.5 354 517.2 354Z" fill="black"/>
<path d="M511.4 177.9C511.4 177.9 533.3 172.4 537.3 158.7Z" fill="#F2F2F2"/>
<path d="M511.4 178.9C510.9 178.9 510.5 178.6 510.4 178.1C510.3 177.6 510.6 177 511.1 176.9C511.1 176.9 516.6 175.5 522.4 172.5C527.7 169.8 534.3 165.1 536.3 158.4C536.5 157.9 537 157.5 537.6 157.7C538.1 157.9 538.5 158.4 538.3 159C537.3 162.3 535.3 165.4 532.3 168.2C529.9 170.4 526.9 172.5 523.4 174.3C517.4 177.4 512 178.8 511.7 178.9C511.6 178.9 511.5 178.9 511.4 178.9Z" fill="black"/>
<path d="M474.2 214.1H474.1C473.5 214 473.1 213.5 473.2 213C475 196.5 479.5 186.2 482.9 180.5C486.7 174.2 490 171.9 490.1 171.8C490.6 171.5 491.2 171.6 491.5 172.1C491.8 172.6 491.7 173.2 491.2 173.5C491.1 173.5 488 175.8 484.5 181.7C481.2 187.2 477 197.2 475.2 213.2C475.2 213.7 474.7 214.1 474.2 214.1Z" fill="black"/>
<path d="M507.6 169.1C505.8 169.1 504.1 168.6 502.5 167.6C502.2 167.4 502.1 167.2 502 166.9L501.3 162.2C501.2 161.8 501.4 161.4 501.8 161.2C502.1 161 502.6 161 502.9 161.2C503 161.2 509.5 165 516.7 161.9C517.1 161.7 517.6 161.9 517.9 162.2C518.2 162.6 518.2 163.1 517.9 163.5C517.8 163.6 516 165.8 513.3 167.4C511.4 168.5 509.5 169.1 507.6 169.1ZM504 166.1C506.5 167.5 509.3 167.4 512.3 165.6C512.7 165.4 513.1 165.1 513.4 164.9C509.3 165.5 505.7 164.5 503.7 163.7L504 166.1Z" fill="black"/>
<path d="M502.8 157.6C501.7 157.6 500.6 157.1 499.9 156.2C499.1 155.2 498.8 153.9 499.1 152.7L502.8 141.4C503 140.9 503.6 140.6 504.1 140.7C504.6 140.9 504.9 141.5 504.8 142L501.1 153.3C500.9 153.9 501.1 154.5 501.5 154.9C501.9 155.4 502.5 155.6 503.1 155.5L507.7 155C508.3 154.9 508.8 155.3 508.8 155.9C508.9 156.5 508.5 157 507.9 157L503.3 157.5C503.1 157.6 503 157.6 502.8 157.6Z" fill="black"/>
<path d="M536.4 88.1C536.4 88.1 515.9 85.3 508.5 99.8L499.8 117.3C496.5 117 494.8 117.1 494.8 117.1L505.5 96.5C505.3 96.5 513.8 80.9 536.4 88.1Z" fill="white"/>
<path d="M557.6 143.2L556.8 142.5C556.7 142.4 547.9 135.5 541.1 132C526.5 124.4 514.7 121 507.3 119.5C499.3 117.9 494.8 118.1 494.7 118.1L492.9 118.2L493.7 116.6L504.4 95.9C504.5 95.7 506.7 91.7 511.8 88.6C514.8 86.8 518.2 85.6 521.8 85.2C526.3 84.7 531.3 85.3 536.6 87C536.9 87.1 537.1 87.2 537.4 87.3C537.6 87.4 542.8 89.2 548.6 92.9C552 95.1 554.9 97.6 557.2 100.2C560.1 103.5 562.1 107 563.1 110.7V110.8C563.1 111 564 115.6 563.9 121.7C563.7 127.4 562.6 135.6 558 142.2L557.6 143.2ZM496.3 116.1C498.4 116.2 502.2 116.4 507.6 117.5C515.1 119 527.2 122.4 542 130.2C547.7 133.2 554.7 138.4 557.1 140.3C560.9 134.3 561.9 127 562 121.8C562.2 116.1 561.3 111.7 561.3 111.3C559.2 103.6 552.7 98.1 547.6 94.7C542 91.1 536.9 89.3 536.8 89.3C536.5 89.2 536.3 89.1 536 89C527 86.1 519.2 86.6 513 90.3C508.4 93.1 506.3 96.7 506.2 96.9L496.3 116.1Z" fill="black"/>
<path d="M499.7 117.3C499.7 117.3 484.6 126.4 481.9 131.3C479.7 131.4 477.6 131.7 475.3 132.2C475.3 132.2 485 121.1 494.6 117.1C494.6 117.1 496.4 117 499.7 117.3Z" fill="white"/>
<path d="M517.3 144.2C517.1 144.2 513.4 144 509.1 141.3C509.1 141.3 505.9 138.9 500.9 136.7C496.4 134.6 489.4 132.2 481.9 132.5C479.7 132.6 477.6 132.9 475.6 133.4C475.2 133.5 474.7 133.3 474.5 132.9C474.3 132.5 474.3 132 474.6 131.7C475 131.2 484.6 120.4 494.3 116.3C494.4 116.3 494.5 116.2 494.6 116.2C494.7 116.2 496.5 116.1 499.8 116.4C507 117.1 522.1 119.8 542 130.3C542.3 130.5 542.5 130.8 542.5 131.1C542.5 131.4 542.4 131.8 542.2 132C541.6 132.3 528.1 144.2 517.3 144.2ZM510.2 139.5C513.8 141.8 517 142.1 517.3 142.1C525.6 142.1 536.2 134.1 539.7 131.3C520.7 121.6 506.4 119 499.5 118.4C496.9 118.1 495.3 118.1 494.8 118.2C488.2 121.1 481.5 127.3 478.1 130.7C479.3 130.5 480.5 130.4 481.7 130.4C489.6 130.1 496.9 132.7 501.7 134.8C506.7 137 509.9 139.3 510.2 139.5Z" fill="black"/>
<path d="M503.9 142.7C503.8 142.7 503.7 142.7 503.6 142.7C503.1 142.5 502.8 142 502.9 141.4C503.9 138.2 501.4 136.8 501.1 136.7C500.6 136.4 500.4 135.8 500.6 135.3C500.8 134.8 501.5 134.6 502 134.8C503.5 135.6 506 138 504.8 141.9C504.7 142.4 504.3 142.7 503.9 142.7Z" fill="black"/>
<path d="M500 139.7C500.828 139.7 501.5 138.625 501.5 137.3C501.5 135.975 500.828 134.9 500 134.9C499.172 134.9 498.5 135.975 498.5 137.3C498.5 138.625 499.172 139.7 500 139.7Z" fill="black"/>
<path d="M318.1 600C318.1 600 306.6 691.1 303.4 701.5C300.3 711.9 299.8 738.8 299.8 738.8L298.9 746.4C298 745.9 297.3 745.3 297 744.8C296 743.1 295 738 295 733.5C295 729 293.9 724.1 287.5 719.7C283.6 717 278.3 718.5 275.4 719.3C281.1 713.5 282.9 699.3 281.4 682.9C279.8 664.9 279.5 652 279.5 638C279.5 623.9 296.3 591.8 296.3 591.8L318.1 600Z" fill="#F2F2F2"/>
<path d="M299 747.5C298.8 747.5 298.6 747.4 298.5 747.3C297.3 746.6 296.6 746 296.2 745.3C295 743.4 294.1 738.1 294.1 733.5C294.1 729.5 293.3 724.8 287 720.5C283.4 718 278.1 719.6 275.8 720.3C275.3 720.4 274.9 720.2 274.6 719.8C274.3 719.4 274.4 718.9 274.8 718.6C279.9 713.4 282.1 700.1 280.5 683C278.9 665.5 278.6 652.8 278.6 638C278.6 632 281.5 622.3 287.1 609.2C291.3 599.5 295.5 591.4 295.5 591.3C295.8 590.8 296.3 590.6 296.8 590.8L318.5 599C318.9 599.2 319.2 599.6 319.2 600.1C318.7 603.8 307.6 691.4 304.5 701.8C301.4 712 301 738.6 301 738.9V739L300.1 746.6C300.1 746.9 299.8 747.3 299.5 747.4C299.3 747.5 299.1 747.5 299 747.5ZM282.1 717.3C284.2 717.3 286.3 717.7 288.2 719C295.2 723.8 296.1 729.4 296.1 733.6C296.1 738.2 297.1 742.9 297.9 744.4C297.9 744.4 298 744.5 298.2 744.7L298.9 738.9C298.9 737.2 299.4 711.7 302.5 701.3C305.4 691.6 315.9 609.7 317 600.8L296.9 593.2C294.3 598.2 280.6 625.7 280.6 638.1C280.6 652.8 280.9 665.5 282.5 682.9C283.9 698.7 282.3 711 278.1 717.7C279.4 717.5 280.7 717.3 282.1 717.3Z" fill="black"/>
<path d="M334.9 682.3C332.8 692.2 329.4 711.1 329.4 727.2C329.4 750.4 335.7 760.2 335.7 760.2C337.3 760.7 339.7 764.1 339.7 766.5C339.7 770.4 337.2 772.4 334.8 772.4C332.4 772.4 329.6 770.8 319.7 756.9C312.6 746.8 304.7 740.8 300.9 738.2C301.3 737.9 301.6 737.7 302 737.4C302.4 737.1 302.8 736.9 303.1 736.6C304.4 735.5 305.2 733.9 305.1 732.2L304.6 715.8C304.6 699.3 299.6 685.8 299.6 685.8C291.2 662.9 303.3 639.2 303.3 639.2C309.3 628.9 309.8 617.4 309.8 617.4L343.7 630.3C343.2 636.3 341.6 646.1 340.1 655.1C338.5 664.2 336.7 673.3 334.9 682.3Z" fill="#F2F2F2"/>
<path d="M334.7 773.4C331.6 773.4 328.4 771 318.8 757.5C311.8 747.7 304.2 741.7 300.2 739C299.9 738.8 299.7 738.5 299.7 738.2C299.7 737.9 299.9 737.5 300.1 737.4C300.4 737.1 300.8 736.9 301.2 736.6C301.6 736.3 301.9 736.1 302.2 735.8C303.3 734.9 303.9 733.6 303.8 732.2L303.3 715.8C303.3 699.7 298.4 686.3 298.4 686.1C296.4 680.8 295.4 675 295.4 668.8C295.4 663.9 295.9 658.8 297.1 653.6C299.1 644.8 302 638.9 302.2 638.7C308 628.8 308.5 617.5 308.5 617.4C308.5 617.1 308.7 616.8 309 616.6C309.3 616.4 309.6 616.4 309.9 616.5L343.8 629.4C344.2 629.6 344.5 630 344.5 630.4C344 635.5 342.8 643.8 340.9 655.2C339.4 664.1 337.7 673.2 335.8 682.5C333.8 692.3 330.4 711.1 330.4 727.2C330.4 739 332.1 747.2 333.4 752C334.6 756.2 335.9 758.6 336.3 759.4C338.3 760.4 340.6 763.8 340.6 766.5C340.7 771 337.6 773.4 334.7 773.4ZM302.6 738.2C306.9 741.3 314 747.2 320.5 756.4C330.4 770.3 332.9 771.5 334.8 771.5C336.8 771.5 338.7 769.8 338.7 766.6C338.7 764.6 336.5 761.7 335.4 761.3C335.2 761.2 335 761.1 334.9 760.9C334.8 760.8 333.2 758.3 331.6 752.8C330.1 747.9 328.4 739.4 328.4 727.3C328.4 711 331.8 692 333.9 682.1C335.8 672.9 337.5 663.7 339 654.9C340.8 644.1 342 636 342.5 631L310.6 618.8C310.3 622.2 308.9 631.3 304.1 639.7C303.9 640.1 301.1 645.9 299.2 654.2C297.4 662.1 296.2 673.9 300.5 685.4C300.6 685.5 305.6 699.3 305.6 715.8L306.1 732.2C306.2 734.2 305.3 736.2 303.7 737.4C303.3 737.6 303 737.9 302.6 738.2Z" fill="black"/>
<path d="M242.5 437.6C242.5 437.6 253.4 450.6 261.2 454.9L268.6 439.2C268.6 439.2 261.3 430.7 258.9 425.6L242.5 437.6Z" fill="#F2F2F2"/>
<path d="M261.1 455.9C260.9 455.9 260.8 455.9 260.6 455.8C252.7 451.5 242.1 438.8 241.6 438.3C241.4 438.1 241.3 437.8 241.4 437.5C241.4 437.2 241.6 437 241.8 436.8L258.2 424.8C258.5 424.6 258.8 424.5 259.1 424.6C259.4 424.7 259.6 424.9 259.8 425.2C262.1 430.1 269.3 438.5 269.3 438.6C269.6 438.9 269.6 439.3 269.5 439.7L262.1 455.4C262 455.7 261.8 455.9 261.5 455.9C261.4 455.9 261.3 455.9 261.1 455.9ZM244 437.8C246.4 440.6 254.4 449.6 260.7 453.5L267.4 439.5C265.9 437.7 260.9 431.7 258.5 427.3L244 437.8Z" fill="black"/>
<path d="M389.4 408.2L395.9 401.2C395.9 401.2 399.7 397 400.6 393.6C400.6 393.6 402.7 386.3 404.7 383.5C404.7 383.5 403.6 377.1 402.3 374C401 370.9 402.9 370.1 402.9 370.1C402.9 370.1 405.1 369.3 406.3 372.9C407.5 376.5 407.7 378.3 408.3 379.8L411 376.4C411.9 375.2 412.3 373.8 412.1 372.3C412.1 372.1 412 371.8 412 371.6L411.4 369.6C410.9 368.1 410.4 366.6 409.9 365.1C409.4 363.8 408.9 361.8 409.9 361.2C411.4 360.3 413 363.2 413 363.2L414.9 366.5C414.9 366.5 416.1 363.3 416.1 361.7C416.1 361.7 413.8 356.2 415.8 355.3C415.8 355.3 418.3 353.5 420 359.6C420 359.6 418.3 354.6 420.9 353.6C420.9 353.6 423.4 352.7 426 358.1C426 358.1 429 363.5 428.6 371.9C428.6 371.9 427.9 382.2 423.1 387.5C423.1 387.5 413.2 398.8 410.6 404C408 409.2 407.2 410.4 403 418.3L389.4 408.2Z" fill="#F2F2F2"/>
<path d="M402.9 419.3C402.7 419.3 402.5 419.2 402.3 419.1L388.8 409C388.6 408.8 388.4 408.6 388.4 408.3C388.4 408 388.5 407.7 388.7 407.5L395.2 400.5C395.2 400.5 398.8 396.4 399.6 393.3C399.7 393 401.6 386.3 403.6 383.2C403.3 381.8 402.4 376.9 401.4 374.3C400.8 372.8 400.7 371.5 401.2 370.5C401.7 369.5 402.5 369.1 402.7 369.1C402.9 369.1 403.8 368.7 405 369.3C406.1 369.8 406.9 370.9 407.4 372.6C408 374.4 408.4 375.8 408.6 376.9C408.7 377.2 408.8 377.5 408.8 377.7L410.3 375.8C411.1 374.8 411.4 373.6 411.2 372.5C411.2 372.3 411.1 372.1 411.1 371.9L410.5 369.9C410.1 368.6 409.6 367.1 409 365.5C408 362.8 408.2 361.1 409.5 360.4C410 360.1 410.6 360 411.2 360.2C412.7 360.6 413.7 362.4 414 362.8L414.8 364.1C415 363.3 415.2 362.5 415.2 362C415 361.5 414.6 360.4 414.3 359.2C413.8 356.7 414.1 355.2 415.4 354.5C415.7 354.3 416.6 353.9 417.7 354.3C418.1 354.4 418.5 354.7 418.8 355C419.2 353.6 420.1 353.1 420.7 352.9C421 352.8 424.1 351.9 427 357.9C427.2 358.3 430.1 363.8 429.7 372.2C429.7 372.6 428.9 382.9 423.9 388.4C423.6 388.7 414.1 399.7 411.5 404.7C409.6 408.5 408.7 410.2 406.7 413.8C405.9 415.2 405 416.9 403.9 419.1C403.8 419.4 403.5 419.6 403.2 419.6C403 419.3 403 419.3 402.9 419.3ZM390.9 408L402.5 416.7C403.4 415 404.2 413.6 404.8 412.5C406.8 408.9 407.7 407.2 409.6 403.4C412.3 398.1 421.8 387.1 422.2 386.7C426.6 381.8 427.4 372.2 427.5 371.8C427.8 363.8 425 358.6 425 358.5C423 354.5 421.3 354.5 421.1 354.5C420.1 355 420.4 357.2 420.7 358.6C420.8 358.8 420.8 359 420.9 359.2C421.1 359.7 420.7 360.3 420.2 360.5C419.7 360.7 419.1 360.4 418.9 359.9C418.9 359.9 418.8 359.7 418.7 359.3C417.9 356.7 417 356.1 416.7 356C416.4 355.9 416.2 356 416.2 356C416.1 356 416.1 356 416.1 356.1C415.9 356.2 415.6 356.8 416 358.5C416.3 359.9 416.8 361.2 416.8 361.2C416.9 361.3 416.9 361.5 416.9 361.6C416.9 363.3 415.8 366.4 415.7 366.7C415.6 367.1 415.2 367.3 414.8 367.4C414.4 367.4 414 367.2 413.8 366.9L411.9 363.6C411.6 363 410.9 362.1 410.4 362C410.3 362 410.3 362 410.3 362C410.2 362.2 410.1 362.9 410.7 364.7C411.3 366.4 411.8 367.9 412.2 369.2L412.8 371.2V371.3C412.9 371.6 412.9 371.8 413 372.1C413.3 373.8 412.7 375.6 411.7 377L409 380.4C408.8 380.7 408.4 380.8 408.1 380.8C407.7 380.7 407.4 380.5 407.3 380.2C406.9 379.4 406.7 378.5 406.4 377.4C406.1 376.3 405.8 375 405.2 373.2C404.4 370.9 403.3 370.9 403.1 371C402.8 371.2 402.4 371.9 403.1 373.5C404.4 376.8 405.5 383 405.5 383.3C405.5 383.6 405.5 383.8 405.3 384.1C403.5 386.7 401.5 393.6 401.4 393.9C400.5 397.6 396.7 401.8 396.5 402L390.9 408Z" fill="black"/>
<path d="M402.9 418.3L381.7 457.5C374.5 470.7 368.3 470.4 368.3 470.4C364.3 470.4 359.1 465.3 359.1 465.3C358.6 472.7 359.6 479.6 360.4 483.9C360.8 485.9 361.3 487.8 362 489.7C366.4 502.8 366.4 538.7 366.4 538.7C366.4 555.1 356.9 588.2 356.9 588.2L345.4 628.6C343.2 632 333.6 631.9 333.6 631.9C322.1 631.9 313.4 621.3 313.4 621.3C311.3 619 309.5 616.8 307.8 614.6C298 601.6 296.5 591.6 296.5 591.6L300.7 582.3C303.4 575.6 299.4 571.4 299.4 571.4C285.7 555.2 261.8 518 261.8 518C257.4 511.3 254.8 504.5 253.3 498.4C250 485.2 251.7 474.8 251.7 474.8C252.1 472 252.7 469.3 253.4 466.7C258.1 449.3 267.5 436.2 267.5 436.2C274.4 427.2 276.6 415.8 276.6 415.8C277.2 410.6 276.4 405.2 275.3 400.6C273.8 394.9 271.5 389.5 268.5 384.5L259.6 369.9L250.9 402.6C250.3 405 251.1 408 251.1 408L258.8 425.4C258.4 429.1 253.5 433.3 253.5 433.3C251.2 435.7 248.1 436.7 245.7 437.1C243.8 437.4 242.4 437.4 242.4 437.4L227.7 419.2C223.8 414.1 225.6 403.9 225.6 403.9C225.8 403.1 226 402.3 226.2 401.4C228.1 393 229.6 384.6 230.7 376.1L234.6 345.5C236.3 332.5 239.5 322.4 241.4 317.2C243.5 311.5 247.7 306.8 253.3 304.3C260.4 301.1 267.9 301 267.9 301L325.1 328.5C332.2 332.8 355.8 351.1 355.8 351.1C366.7 360 367.1 371.5 367.1 371.5C367.1 387.6 356.5 391.4 356.5 391.4C358.2 405.8 370.7 430.1 370.7 430.1L387.9 408.1C392.6 407.1 397 410.5 397 410.5C402.9 414.9 402.9 418.3 402.9 418.3Z" fill="#DC3C24"/>
<path d="M333.7 633.1C333.6 633.1 333.6 633.1 333.5 633.1C328.6 633.1 323.4 631.2 318.5 627.6C315 625 312.8 622.5 312.6 622.2C310.6 620 308.7 617.7 307 615.4C297.2 602.3 295.6 592.4 295.5 592L295.4 591.7L299.8 582.1C302.2 576.2 298.9 572.4 298.7 572.3C285.1 556.2 261.2 519.2 261 518.8C257.1 512.8 254.2 506.1 252.4 498.9C249.1 485.6 250.7 475.3 250.8 474.9C251.2 472.2 251.8 469.5 252.6 466.7C257.3 449.3 266.8 436 266.9 435.8C273.3 427.3 275.7 416.6 275.8 415.9C276.3 411.6 275.9 406.6 274.5 401.1C273.1 395.6 270.8 390.3 267.8 385.2L260.2 372.6L252 403C251.5 405 252.1 407.4 252.2 407.8L260 425.4V425.7C259.6 429.6 254.9 433.8 254.4 434.3C251.9 437 248.5 438 246.1 438.4C244.1 438.7 242.6 438.7 242.5 438.7H242L227 420C222.9 414.7 224.6 404.3 224.7 403.9V403.8C224.9 403.1 225.1 402.2 225.3 401.3C227.2 393.1 228.7 384.6 229.8 376.1L233.7 345.5C235.5 332.2 238.7 321.9 240.5 316.9C242.7 310.9 247.2 306 253 303.4C260.2 300.2 267.6 300.1 268 300.1H268.3L325.8 327.8C332.9 332.1 355.6 349.8 356.6 350.5C362.4 355.3 365.3 360.7 366.6 364.5C368.1 368.6 368.2 371.5 368.2 371.7C368.2 380.3 365.2 385.5 362.7 388.4C360.7 390.6 358.8 391.8 357.8 392.3C359.5 404.4 368.5 423.2 371.1 428.5L387.6 407.5L388 407.4C393 406.3 397.5 409.7 397.9 410C404 414.3 404.2 417.9 404.2 418.3V418.6L404.1 418.8L382.7 458C375.5 471.2 369 471.4 368.4 471.4C365.5 471.4 362.1 469 360.1 467.5C359.9 473.9 360.7 479.8 361.5 483.7C361.9 485.5 362.4 487.4 363 489.4C367.4 502.5 367.5 537.3 367.5 538.8C367.5 555.2 358.4 587.3 358 588.6L346.4 629.2L346.3 629.3C343.9 633 335.3 633.1 333.7 633.1ZM297.5 592C297.9 593.7 300 602.8 308.6 614.2C310.3 616.4 312.1 618.7 314.1 620.8C314.2 620.9 322.6 631 333.5 631C337 631 342.9 630.3 344.4 628.2L355.9 587.9C356 587.6 365.3 554.7 365.3 538.6C365.3 538.2 365.2 502.7 360.9 489.9C360.2 487.8 359.7 485.8 359.3 483.9C358.4 479.4 357.5 472.5 358 465.1L358.2 462.9L359.8 464.4C361.2 465.7 365.4 469.2 368.3 469.2H368.4C368.7 469.2 374.3 468.9 380.9 456.8L401.9 417.8C401.7 417 400.9 414.4 396.5 411.3C396.5 411.3 392.6 408.3 388.6 409L370.6 432L369.9 430.6C369.4 429.6 357.3 406 355.5 391.5L355.4 390.7L356.2 390.4C356.2 390.4 358.7 389.4 361.1 386.6C364.3 382.9 366 377.6 366 371.4C366 371.2 365.8 368.5 364.5 364.8C363.2 361.3 360.5 356.2 355.1 351.8C354.5 351.3 331.6 333.5 324.6 329.3L267.7 301.9C266.4 302 259.9 302.3 253.8 305.1C248.6 307.4 244.4 311.9 242.4 317.4C240.6 322.3 237.4 332.4 235.7 345.5L231.8 376.1C230.7 384.7 229.2 393.2 227.3 401.5C227.1 402.4 226.9 403.3 226.7 404C226.6 404.6 225.2 413.9 228.6 418.5L243 436.3C243.5 436.3 244.5 436.3 245.7 436C247.8 435.6 250.8 434.7 252.9 432.5L253 432.4C254.2 431.3 257.4 428 257.9 425.4L250.3 408.2V408.1C250.3 408 249.5 404.8 250.1 402.2L259.4 367.2L269.5 383.9C272.7 389.1 275 394.6 276.5 400.3C278 406 278.4 411.2 277.9 415.9V416C277.8 416.5 275.5 427.7 268.6 436.8C268.3 437.2 259.1 450.1 254.6 467C253.9 469.7 253.3 472.4 252.9 475C252.9 475.1 251.3 485.3 254.5 498.2C256.2 505.2 259.1 511.7 262.9 517.5C263.2 517.9 286.9 554.8 300.4 570.8C300.8 571.2 304.7 575.8 301.8 582.8L297.5 592Z" fill="black"/>
<path d="M333.7 633.1C333.6 633.1 333.6 633.1 333.5 633.1C328.6 633.1 323.4 631.2 318.5 627.6C315 625 312.8 622.5 312.6 622.2C310.6 620 308.7 617.7 307 615.4C297.2 602.3 295.6 592.4 295.5 592L295.4 591.7L299.8 582.1C302.2 576.2 298.9 572.4 298.7 572.3C285.1 556.2 261.2 519.2 261 518.8C257.1 512.8 254.2 506.1 252.4 498.9C249.1 485.6 250.7 475.3 250.8 474.9C251.2 472.2 251.8 469.5 252.6 466.7C257.3 449.3 266.8 436 266.9 435.8C273.3 427.3 275.7 416.6 275.8 415.9C276.3 411.6 275.9 406.6 274.5 401.1C273.1 395.6 270.8 390.3 267.8 385.2L260.2 372.6L252 403C251.5 405 252.1 407.4 252.2 407.8L260 425.4V425.7C259.6 429.6 254.9 433.8 254.4 434.3C251.9 437 248.5 438 246.1 438.4C244.1 438.7 242.6 438.7 242.5 438.7H242L227 420C222.9 414.7 224.6 404.3 224.7 403.9V403.8C224.9 403.1 225.1 402.2 225.3 401.3C227.2 393.1 228.7 384.6 229.8 376.1L233.7 345.5C235.5 332.2 238.7 321.9 240.5 316.9C242.7 310.9 247.2 306 253 303.4C260.2 300.2 267.6 300.1 268 300.1H268.3L325.8 327.8C332.9 332.1 355.6 349.8 356.6 350.5C362.4 355.3 365.3 360.7 366.6 364.5C368.1 368.6 368.2 371.5 368.2 371.7C368.2 380.3 365.2 385.5 362.7 388.4C360.7 390.6 358.8 391.8 357.8 392.3C359.5 404.4 368.5 423.2 371.1 428.5L387.6 407.5L388 407.4C393 406.3 397.5 409.7 397.9 410C404 414.3 404.2 417.9 404.2 418.3V418.6L404.1 418.8L382.7 458C375.5 471.2 369 471.4 368.4 471.4C365.5 471.4 362.1 469 360.1 467.5C359.9 473.9 360.7 479.8 361.5 483.7C361.9 485.5 362.4 487.4 363 489.4C367.4 502.5 367.5 537.3 367.5 538.8C367.5 555.2 358.4 587.3 358 588.6L346.4 629.2L346.3 629.3C343.9 633 335.3 633.1 333.7 633.1ZM297.5 592C297.9 593.7 300 602.8 308.6 614.2C310.3 616.4 312.1 618.7 314.1 620.8C314.2 620.9 322.6 631 333.5 631C337 631 342.9 630.3 344.4 628.2L355.9 587.9C356 587.6 365.3 554.7 365.3 538.6C365.3 538.2 365.2 502.7 360.9 489.9C360.2 487.8 359.7 485.8 359.3 483.9C358.4 479.4 357.5 472.5 358 465.1L358.2 462.9L359.8 464.4C361.2 465.7 365.4 469.2 368.3 469.2H368.4C368.7 469.2 374.3 468.9 380.9 456.8L401.9 417.8C401.7 417 400.9 414.4 396.5 411.3C396.5 411.3 392.6 408.3 388.6 409L370.6 432L369.9 430.6C369.4 429.6 357.3 406 355.5 391.5L355.4 390.7L356.2 390.4C356.2 390.4 358.7 389.4 361.1 386.6C364.3 382.9 366 377.6 366 371.4C366 371.2 365.8 368.5 364.5 364.8C363.2 361.3 360.5 356.2 355.1 351.8C354.5 351.3 331.6 333.5 324.6 329.3L267.7 301.9C266.4 302 259.9 302.3 253.8 305.1C248.6 307.4 244.4 311.9 242.4 317.4C240.6 322.3 237.4 332.4 235.7 345.5L231.8 376.1C230.7 384.7 229.2 393.2 227.3 401.5C227.1 402.4 226.9 403.3 226.7 404C226.6 404.6 225.2 413.9 228.6 418.5L243 436.3C243.5 436.3 244.5 436.3 245.7 436C247.8 435.6 250.8 434.7 252.9 432.5L253 432.4C254.2 431.3 257.4 428 257.9 425.4L250.3 408.2V408.1C250.3 408 249.5 404.8 250.1 402.2L259.4 367.2L269.5 383.9C272.7 389.1 275 394.6 276.5 400.3C278 406 278.4 411.2 277.9 415.9V416C277.8 416.5 275.5 427.7 268.6 436.8C268.3 437.2 259.1 450.1 254.6 467C253.9 469.7 253.3 472.4 252.9 475C252.9 475.1 251.3 485.3 254.5 498.2C256.2 505.2 259.1 511.7 262.9 517.5C263.2 517.9 286.9 554.8 300.4 570.8C300.8 571.2 304.7 575.8 301.8 582.8L297.5 592Z" fill="black"/>
<path d="M338.5 245.3C338.5 245.3 339.1 253.6 337.7 259.3C337.2 261.5 337.3 263.8 338.1 265.9C338.8 267.8 339.1 270.7 337.4 274.7L331.7 287.4C330.9 289.2 329.8 290.7 328.3 291.9C327.1 292.8 325.7 293.7 324 293.9C323 294 322 294.3 321.1 294.9C319.9 295.7 318.5 297 317.5 299.3L309.4 277.2L338.5 245.3Z" fill="#F2F2F2"/>
<path d="M317.7 300.3C317.3 300.3 316.9 300 316.7 299.6L308.6 277.5C308.5 277.1 308.5 276.7 308.8 276.5L337.7 244.6C338 244.3 338.4 244.2 338.8 244.3C339.2 244.4 339.5 244.8 339.5 245.2C339.5 245.5 340.1 253.7 338.7 259.5C338.2 261.5 338.4 263.6 339.1 265.5C339.8 267.4 340.3 270.6 338.4 275L332.7 287.7C331.8 289.6 330.6 291.3 329 292.6C327.5 293.9 325.8 294.6 324.2 294.8C323.3 294.9 322.4 295.2 321.7 295.6C320.3 296.5 319.2 297.8 318.5 299.5C318.5 300 318.1 300.3 317.7 300.3ZM310.8 277.4L317.9 296.8C318.8 295.4 319.9 294.6 320.7 294C321.7 293.4 322.8 293 324 292.9C325.3 292.7 326.5 292.2 327.8 291.2C329.1 290.1 330.2 288.7 330.9 287.1L336.6 274.4C337.9 271.4 338.1 268.6 337.3 266.4C336.5 264.1 336.3 261.6 336.9 259.2C337.7 255.5 337.8 250.8 337.7 247.9L310.8 277.4Z" fill="black"/>
<path d="M270.5 305.5C270.5 305.5 267.8 307.9 267.8 311.8C267.8 311.8 267.7 317 275.5 321.6C279.1 323.7 282.8 325.7 286.8 326.9C291.5 328.3 298.9 330.1 306.6 330.1C306.6 330.1 319.7 330.1 325.1 328.6C325.1 328.6 316.4 322.7 316.4 311.9L270.5 305.5Z" fill="#F2F2F2"/>
<path d="M306.5 331.2C298.8 331.2 291.3 329.4 286.4 328C282.2 326.7 278.4 324.6 274.9 322.6C266.8 317.8 266.7 312.3 266.8 311.9C266.8 307.6 269.7 305 269.8 304.9C270 304.7 270.3 304.6 270.6 304.6L316.4 311.1C316.9 311.2 317.3 311.6 317.3 312.1C317.3 316.3 318.7 320.2 321.4 323.8C323.5 326.5 325.6 327.9 325.6 327.9C325.9 328.1 326.1 328.5 326 328.9C325.9 329.3 325.6 329.6 325.3 329.7C319.9 331.1 307.1 331.2 306.5 331.2ZM270.9 306.6C270.3 307.3 268.9 309.2 268.9 311.8C268.9 312 269 316.5 276.1 320.7C279.5 322.7 283.1 324.7 287.2 325.9C292 327.3 299.2 329.1 306.7 329.1C306.8 329.1 317 329.1 322.9 328.1C322.1 327.3 321 326.3 320 325C317.2 321.4 315.6 317.2 315.4 312.9L270.9 306.6Z" fill="black"/>
<path d="M317.7 308.5C317.4 314.1 310.8 314.5 310.8 314.5C267.1 314.5 267.8 300.4 267.8 300.4C265.6 284.4 269.8 248.8 269.8 248.8C279 214.3 311.4 220.8 311.4 220.8C338.7 225.6 338.6 245.3 338.6 245.3C338.6 262.2 324.5 272.9 324.5 272.9C324.5 272.9 317.8 278.1 317.8 284.8L317.7 308.5Z" fill="black"/>
<path d="M310.8 315.5C284.2 315.5 273.6 310.3 269.4 305.9C266.9 303.3 266.7 301 266.7 300.5C264.6 284.6 268.5 250.2 268.7 248.8V248.7V248.6C270.9 240.6 274.4 234 279.3 229.2C283.3 225.3 288.1 222.6 293.6 221C302.9 218.3 310.9 219.8 311.4 219.9C317.8 221 323.2 223 327.6 225.9C331.1 228.2 333.9 231.1 336 234.4C339.5 240.1 339.5 245.2 339.5 245.4C339.5 254.4 335.5 261.7 332.2 266.1C328.7 270.9 325.2 273.6 324.9 273.8C324.7 273.9 318.6 278.9 318.6 284.9V308.6C318.5 311.3 317 313.3 314.5 314.5C312.7 315.4 310.9 315.5 310.8 315.5ZM268.8 300.5C268.8 300.7 268.9 302.5 271.1 304.7C273.5 307.1 277.3 309.1 282.5 310.5C289.6 312.5 299.1 313.5 310.8 313.5C311.3 313.5 316.5 313 316.7 308.5V284.8C316.7 277.7 323.5 272.3 323.8 272.1C323.8 272.1 327.3 269.4 330.7 264.8C333.8 260.6 337.5 253.7 337.5 245.3C337.5 245.2 337.5 240.5 334.2 235.3C329.9 228.4 321.9 223.7 311.1 221.9C311 221.9 303.1 220.4 294.2 223C282.4 226.5 274.5 235.2 270.7 249.1C270.5 250.9 266.6 285 268.7 300.3V300.5H268.8Z" fill="black"/>
<path d="M259.6 371.1C259.3 371.1 258.9 370.9 258.7 370.6C253.5 362.1 248.8 349.4 246.5 342.6C245.7 340.3 245.2 338.8 245.2 338.8C245 338.3 245.3 337.7 245.9 337.5C246.4 337.3 247 337.6 247.2 338.2C247.2 338.2 247.7 339.7 248.5 341.9C250.8 348.6 255.5 361.2 260.5 369.5C260.8 370 260.6 370.6 260.2 370.9C260 371.1 259.8 371.1 259.6 371.1Z" fill="black"/>
<path d="M359.1 466.4C358.9 466.4 358.6 466.3 358.4 466.1C353 461.4 347.3 453.8 341.6 443.4C337 435.2 332.4 425.2 327.8 413.8C320 394.4 315 377.2 315 377C314.8 376.5 315.2 375.9 315.7 375.7C316.2 375.5 316.8 375.9 317 376.4C317.1 376.6 322 393.7 329.8 413C340 438.5 350.4 456.3 359.8 464.5C360.2 464.9 360.3 465.5 359.9 465.9C359.6 466.3 359.3 466.4 359.1 466.4Z" fill="black"/>
<path d="M356.4 392.7C355.9 392.7 355.5 392.4 355.4 391.9C353.4 383 350.4 369.9 350.3 369.8C350.2 369.3 350.5 368.7 351.1 368.6C351.6 368.5 352.2 368.8 352.3 369.4C352.3 369.5 355.4 382.6 357.4 391.5C357.5 392 357.2 392.6 356.6 392.7C356.6 392.7 356.5 392.7 356.4 392.7Z" fill="black"/>
<path d="M299 746.5L296 772.9C288.3 771.1 271.9 764.9 271.9 764.9C271 768.2 269.5 775.9 269.5 775.9L265.9 775.5C265.9 775.5 268.7 757.6 269.5 752.5C270.3 747.4 268.4 740.2 268.4 740.2C265.9 733.8 267.3 724.6 274.6 719.9C274.7 719.8 274.8 719.8 274.9 719.7C276.7 718.5 278.7 717.7 280.9 717.7C283 717.7 285.4 718.2 287.5 719.7C293.9 724.1 295 729 295 733.5C295 738 296 743.1 297 744.8C297.4 745.4 298.1 746 299 746.5Z" fill="#DC3C24"/>
<path d="M269.6 777H269.5L265.9 776.6C265.6 776.6 265.4 776.4 265.2 776.2C265 776 264.9 775.7 265 775.4C265 775.2 267.8 757.5 268.6 752.4C269.3 747.8 267.7 741.2 267.6 740.5C265 733.8 266.4 724 274.2 719C274.3 718.9 274.4 718.9 274.5 718.8C276.5 717.4 278.8 716.7 281.1 716.7C283.8 716.7 286.2 717.4 288.3 718.8C295.3 723.6 296.2 729.2 296.2 733.4C296.2 738 297.2 742.7 298 744.2C298.1 744.3 298.4 744.7 299.6 745.5C299.9 745.7 300.1 746.1 300.1 746.5L297.1 772.9C297.1 773.2 296.9 773.5 296.7 773.6C296.4 773.8 296.2 773.8 295.9 773.8C289.3 772.2 276.6 767.6 272.8 766.2C271.9 769.8 270.7 776 270.7 776C270.4 776.7 270 777 269.6 777ZM267.2 774.7L268.8 774.9C269.2 772.8 270.3 767.4 271 764.8C271.1 764.5 271.3 764.3 271.5 764.1C271.8 764 272.1 763.9 272.3 764C272.5 764.1 287.2 769.6 295.1 771.6L297.9 747C297 746.4 296.5 745.9 296.2 745.4C295 743.5 294.1 738.2 294.1 733.6C294.1 729.6 293.3 724.9 287 720.6C285.2 719.4 283.2 718.8 280.9 718.8C279 718.8 277.1 719.4 275.5 720.6C275.4 720.7 275.3 720.7 275.2 720.8C268.3 725.2 267 733.9 269.4 739.9V740C269.5 740.3 271.3 747.4 270.5 752.7C269.9 757.1 267.8 770.8 267.2 774.7Z" fill="black"/>
<path d="M366.1 763.4C365.5 771.3 353.7 780.5 353.7 780.5C353.7 780.5 345 787.4 339.4 787.4C333.8 787.4 331.2 785.5 331.2 785.5C331.2 785.5 325 781.3 318.5 775.5C312 769.7 306.7 768 306.7 768C301.5 768 300.8 779.5 300.8 779.5V790.8H297.6C297.6 773.7 295 769.8 295 769.8C295 769.8 289.8 761.9 289.8 754C289.8 748.4 295.6 742.7 298.9 739.9C299.6 739.3 300.3 738.8 301 738.3C304.8 740.9 312.7 747 319.8 757C329.7 770.9 332.4 772.5 334.9 772.5C337.4 772.5 339.8 770.5 339.8 766.6C339.8 764.2 337.2 762.6 335.8 760.3H361.8C363.5 760.3 364.6 760.7 365.2 761.2C365.8 761.7 366.1 762.6 366.1 763.4Z" fill="#DC3C24"/>
<path d="M300.7 791.7H297.5C296.9 791.7 296.5 791.2 296.5 790.7C296.5 774.6 294.1 770.4 294 770.2C293.7 769.7 288.6 761.9 288.6 753.9C288.6 747.9 294.5 742 298 739C298.7 738.4 299.4 737.9 300.1 737.3C300.5 737 300.9 737 301.3 737.3C305.4 740.1 313.2 746.2 320.4 756.3C330.3 770.2 332.8 771.4 334.7 771.4C336.7 771.4 338.6 769.7 338.6 766.5C338.6 765.3 337.6 764.2 336.6 763C336 762.3 335.3 761.6 334.8 760.7C334.6 760.4 334.6 760 334.8 759.7C335 759.4 335.3 759.2 335.7 759.2H361.7C363.4 759.2 364.8 759.6 365.8 760.3C366.7 761 367.3 762.2 367.2 763.5C366.6 771.8 355 780.8 354.4 781.3C353.9 781.7 345.3 788.4 339.4 788.4C333.7 788.4 330.9 786.5 330.6 786.3C330.3 786.1 324.1 781.9 317.8 776.3C312.2 771.2 307.4 769.4 306.5 769C303.2 769.2 302 776.8 301.8 779.5V790.7C301.7 791.3 301.2 791.7 300.7 791.7ZM298.5 789.7H299.6V779.4C299.6 779.4 299.6 779.4 299.6 779.3C299.6 779.2 299.8 776.3 300.6 773.3C302.1 768 304.6 766.8 306.5 766.8C306.6 766.8 306.7 766.8 306.8 766.8C307 766.9 312.4 768.7 319 774.5C325.4 780.2 331.5 784.3 331.6 784.4C331.6 784.4 334 786.1 339.2 786.1C344.4 786.1 352.8 779.5 352.9 779.4C353 779.3 364.4 770.5 364.9 763.1C364.9 762.5 364.7 762 364.3 761.7C363.7 761.2 362.7 761 361.5 761H337.6C337.7 761.2 337.9 761.3 338 761.4C339.3 762.8 340.6 764.2 340.6 766.2C340.6 770.7 337.5 773.1 334.6 773.1C331.5 773.1 328.3 770.7 318.7 757.2C312.1 747.8 304.8 742 300.7 739.1C300.2 739.5 299.7 739.9 299.3 740.2C296.7 742.4 290.6 748.2 290.6 753.6C290.6 761 295.6 768.8 295.7 768.8C295.9 769.3 298.4 773.4 298.5 789.7Z" fill="black"/>
<path d="M273.4 719.9L273.3 719.8C273.3 719.8 274.6 719.1 276.4 718.5V718.6C274.6 719.2 273.4 719.9 273.4 719.9Z" fill="black"/>
<path d="M293 767.3C292.7 767.3 292.3 767.1 292.1 766.8C291.9 766.5 287.5 759.6 286.5 753.6C285.8 748.9 283.8 748.7 283.7 748.7C278 748.7 273.9 760.6 272.8 765.2C272.7 765.7 272.1 766.1 271.6 766C271.1 765.9 270.7 765.3 270.8 764.8C270.8 764.6 271.9 760.3 273.9 756C276.7 749.9 280 746.8 283.7 746.8C284.1 746.8 287.5 747 288.5 753.4C289.4 759 293.7 765.8 293.8 765.8C294.1 766.3 294 766.9 293.5 767.2C293.4 767.3 293.2 767.3 293 767.3Z" fill="black"/>
<path d="M404.6 384.4C404.4 384.4 404.1 384.3 403.9 384.1C403.5 383.7 403.4 383.1 403.8 382.7C403.9 382.6 405.4 380.8 407.6 378.9C408 378.5 408.7 378.6 409 379C409.4 379.4 409.3 380.1 408.9 380.4C406.8 382.2 405.3 383.9 405.3 384C405.2 384.3 404.9 384.4 404.6 384.4Z" fill="black"/>
<path d="M411.5 376.6C411.3 376.6 411.1 376.6 411 376.5C410.5 376.2 410.4 375.6 410.6 375.1C412.6 371.7 413.8 366.3 413.9 366.3C414 365.8 414.6 365.4 415.1 365.5C415.6 365.6 416 366.2 415.9 366.7C415.8 366.9 414.6 372.5 412.4 376.1C412.2 376.4 411.9 376.6 411.5 376.6Z" fill="black"/>
<path d="M418.7 380.4C418.6 380.4 418.5 380.4 418.4 380.3C417.9 380.1 417.6 379.5 417.8 379C421.4 368.3 419.7 361.5 419.6 361C419.4 360.5 419.2 360.4 419.1 360.4C418.7 360.2 418.2 360.4 418 360.4C418 360.4 418 360.4 417.9 360.4C417.2 360.6 417.1 361.7 417.1 361.7C417 362.3 416.5 362.7 416 362.6C415.4 362.5 415 362 415.1 361.5C415.2 360.6 415.8 359.1 417.3 358.6C417.6 358.5 418.8 358.1 419.9 358.6C420.4 358.8 421.1 359.3 421.5 360.4C421.5 360.4 421.5 360.4 421.5 360.5C421.6 360.8 423.6 368.1 419.7 379.7C419.5 380.1 419.1 380.4 418.7 380.4Z" fill="black"/>
</svg>
