<svg width="48" height="48" viewBox="0 0 48 48" fill="none" xmlns="http://www.w3.org/2000/svg">
    <path d="M28 18H26C26 19.1046 26.8954 20 28 20V18ZM28 10H30H28ZM22 4V2C21.2096 2 20.4934 2.46547 20.1724 3.18772L22 4ZM14 22L12.1724 21.1877C12.0587 21.4434 12 21.7202 12 22H14ZM14 44H12C12 45.1046 12.8954 46 14 46V44ZM36.56 44L36.5826 42.0001C36.5751 42 36.5675 42 36.56 42V44ZM40.56 40.6L38.5831 40.2969L38.5826 40.3001L40.56 40.6ZM43.32 22.6L45.2969 22.9031L45.2974 22.9001L43.32 22.6ZM39.32 18V20C39.3275 20 39.3351 20 39.3426 19.9999L39.32 18ZM14 44V46C15.1046 46 16 45.1046 16 44H14ZM14 22H16C16 20.8954 15.1046 20 14 20V22ZM30 18V10H26V18H30ZM30 10C30 5.58172 26.4183 2 22 2V6C24.2091 6 26 7.79086 26 10H30ZM20.1724 3.18772L12.1724 21.1877L15.8276 22.8123L23.8276 4.81228L20.1724 3.18772ZM12 22V44H16V22H12ZM14 46H36.56V42H14V46ZM36.5374 45.9999C39.5293 46.0337 42.0888 43.8581 42.5374 40.8999L38.5826 40.3001C38.4331 41.2862 37.5799 42.0114 36.5826 42.0001L36.5374 45.9999ZM42.5369 40.9031L45.2969 22.9031L41.3431 22.2969L38.5831 40.2969L42.5369 40.9031ZM45.2974 22.9001C45.5615 21.1597 45.048 19.3911 43.8929 18.0627L40.8745 20.6874C41.2595 21.1302 41.4307 21.7197 41.3426 22.2999L45.2974 22.9001ZM43.8929 18.0627C42.7378 16.7343 41.0576 15.9802 39.2974 16.0001L39.3426 19.9999C39.9294 19.9932 40.4895 20.2446 40.8745 20.6874L43.8929 18.0627ZM39.32 16H28V20H39.32V16ZM14 42H8V46H14V42ZM8 42C6.89543 42 6 41.1046 6 40H2C2 43.3137 4.68629 46 8 46V42ZM6 40V26H2V40H6ZM6 26C6 24.8954 6.89543 24 8 24V20C4.68629 20 2 22.6863 2 26H6ZM8 24H14V20H8V24ZM12 22V44H16V22H12Z" fill="#fff"></path>
</svg>